<?xml version="1.0" standalone="no"?><!DOCTYPE svg PUBLIC "-//W3C//DTD SVG 1.1//EN" "http://www.w3.org/Graphics/SVG/1.1/DTD/svg11.dtd"><svg t="1667121995978" class="icon" viewBox="0 0 1024 1024" version="1.1" xmlns="http://www.w3.org/2000/svg" p-id="1266" xmlns:xlink="http://www.w3.org/1999/xlink" width="200" height="200"><path d="M447.957333 725.333333c0 81.237333 34.986667 154.453333 90.709334 205.141334-29.994667 1.706667-63.018667 2.688-99.413334 2.688-352.469333 0-396.629333-89.173333-396.629333-151.466667 0-60.8 48.213333-87.296 109.909333-121.173333l5.12-2.816c16.768-9.130667 33.28-17.194667 48.682667-24.746667 50.688-24.917333 89.941333-44.117333 89.941333-77.184 0-25.173333-13.056-47.786667-28.373333-74.24-21.632-37.248-47.744-82.346667-47.744-153.173333C220.16 220.074667 292.309333 85.333333 437.333333 85.333333c144.981333 0 210.858667 141.568 210.858667 243.029334 0 66.986667-22.741333 110.848-43.093333 146.944A277.333333 277.333333 0 0 0 447.957333 725.333333z m490.666667 0a213.333333 213.333333 0 1 1-426.666667 0 213.333333 213.333333 0 0 1 426.666667 0z m-195.669333-17.706666V640a17.664 17.664 0 1 0-35.328 0v67.669333h-67.669334a17.664 17.664 0 0 0 0 35.328h67.669334v71.338667a17.664 17.664 0 1 0 35.328 0v-71.338667h71.338666a17.664 17.664 0 0 0 0-35.328h-71.338666z" fill="#0566FF" p-id="1267"></path></svg>